<?xml version="1.0" encoding="utf-8"?>
<!-- Generator: Adobe Illustrator 27.0.0, SVG Export Plug-In . SVG Version: 6.00 Build 0)  -->
<svg version="1.1" id="Outline" xmlns="http://www.w3.org/2000/svg" xmlns:xlink="http://www.w3.org/1999/xlink" x="0px" y="0px"
	 viewBox="0 0 48 48" enable-background="new 0 0 48 48" xml:space="preserve">
<g>
	<path d="M43.37231,24c0,0,3.26606-5.59895,3.2795-5.622c0.46684-0.8003-0.78658-1.6249-1.29586-0.75593l-2.85205,4.88922
		c0,0-2.8357-4.86119-2.85198-4.8891c-0.47931-0.82168-1.7906-0.09337-1.29597,0.75574L41.6355,24
		c0,0-3.26095,5.5902-3.27946,5.62193c-0.4697,0.8052,0.80749,1.59263,1.29582,0.75599l2.85205-4.88922
		c0,0,2.84927,4.88446,2.85205,4.88922c0.46992,0.80558,1.80289,0.11328,1.2959-0.75586L43.37231,24z"/>
	<path d="M31.00391,4.25c-1.92004,0-3.48981,1.45636-3.70648,3.31958L15.77686,15.25H8.00391c-1.25488,0-2.30408,0.84937-2.63293,2
		H4.00391c-1.5166,0-2.75,1.2334-2.75,2.75v8c0,1.5166,1.2334,2.75,2.75,2.75h1.36707c0.32886,1.15063,1.37805,2,2.63293,2h7.77295
		l11.52057,7.68042c0.21667,1.86285,1.7865,3.31958,3.70648,3.31958c2.06738,0,3.75-1.68262,3.75-3.75V8
		C34.75391,5.93213,33.07129,4.25,31.00391,4.25z M5.25391,29.25h-1.25c-0.68945,0-1.25-0.56055-1.25-1.25v-8
		c0-0.68945,0.56055-1.25,1.25-1.25h1.25V29.25z M15.25391,31.25h-7.25c-0.68945,0-1.25-0.56055-1.25-1.25V18
		c0-0.68945,0.56055-1.25,1.25-1.25h7.25V31.25z M27.25391,38.59863l-10.5-7V16.40137l10.5-7V38.59863z M33.25391,40
		c0,1.24023-1.00977,2.25-2.25,2.25s-2.25-1.00977-2.25-2.25V8c0-1.24072,1.00977-2.25,2.25-2.25s2.25,1.00928,2.25,2.25V40z"/>
	<path d="M9.00391,20.75c0,0,3.97498,0,3.99988,0c0.95709,0,0.9812-1.5,0.00012-1.5c0,0-3.97058,0-3.99982,0
		C8.04742,19.25,8.0307,20.75,9.00391,20.75z"/>
	<path d="M9.00391,24.75c0,0,3.97638,0,3.99988,0c0.96295,0,0.97595-1.5,0.00012-1.5c0,0-3.97552,0-3.99988,0
		C8.04541,23.25,8.02771,24.75,9.00391,24.75z"/>
	<path d="M13.00391,27.25c0,0-3.98114,0-3.99994,0c-0.93048,0-0.97156,1.5-0.00006,1.5c0,0,3.97467,0,3.99988,0
		C13.96149,28.75,13.97906,27.25,13.00391,27.25z"/>
</g>
</svg>
